<svg id="_x31__x2C_5" enable-background="new 0 0 24 24" height="512" viewBox="0 0 24 24" width="512" xmlns="http://www.w3.org/2000/svg"><g><path d="m12 17c-2.206 0-4-1.794-4-4v-4.25c0-.414.336-.75.75-.75h6.5c.414 0 .75.336.75.75v4.25c0 2.206-1.794 4-4 4zm-2.5-7.5v3.5c0 1.379 1.122 2.5 2.5 2.5s2.5-1.121 2.5-2.5v-3.5z"/></g><g><path d="m12 20c-.414 0-.75-.336-.75-.75v-2.75c0-.414.336-.75.75-.75s.75.336.75.75v2.75c0 .414-.336.75-.75.75z"/></g><g><path d="m14.25 20h-4.5c-.414 0-.75-.336-.75-.75s.336-.75.75-.75h4.5c.414 0 .75.336.75.75s-.336.75-.75.75z"/></g><g><path d="m15.25 14.75c-.098 0-.196-.005-.294-.023-.406-.08-.671-.475-.591-.881.079-.406.472-.669.88-.592.694-.004 1.255-.565 1.255-1.254s-.561-1.25-1.25-1.25c-.414 0-.75-.336-.75-.75s.336-.75.75-.75c1.516 0 2.75 1.233 2.75 2.75s-1.234 2.75-2.75 2.75z"/></g><g><path d="m8.75 14.75c-1.516 0-2.75-1.233-2.75-2.75s1.234-2.75 2.75-2.75c.414 0 .75.336.75.75s-.336.75-.75.75c-.689 0-1.25.561-1.25 1.25s.561 1.25 1.25 1.25c.404-.084.804.187.883.594.08.406-.183.803-.589.883-.098.018-.196.023-.294.023z"/></g><g><path d="m21.25 23h-18.5c-1.517 0-2.75-1.233-2.75-2.75v-16.5c0-1.517 1.233-2.75 2.75-2.75h18.5c1.517 0 2.75 1.233 2.75 2.75v16.5c0 1.517-1.233 2.75-2.75 2.75zm-18.5-20.5c-.689 0-1.25.561-1.25 1.25v16.5c0 .689.561 1.25 1.25 1.25h18.5c.689 0 1.25-.561 1.25-1.25v-16.5c0-.689-.561-1.25-1.25-1.25z"/></g><g><path d="m23.25 6h-22.5c-.414 0-.75-.336-.75-.75s.336-.75.75-.75h22.5c.414 0 .75.336.75.75s-.336.75-.75.75z"/></g></svg>